<svg width="19" height="20" viewBox="0 0 19 20" fill="none" xmlns="http://www.w3.org/2000/svg">
<path fill-rule="evenodd" clip-rule="evenodd" d="M17.9058 18.4277L12.9468 13.2007C13.5956 12.5448 14.1107 11.7641 14.4624 10.9038C14.814 10.0434 14.9952 9.12044 14.9954 8.18817C15.0049 6.5625 14.4713 4.98213 13.4825 3.70794C12.4938 2.43374 11.1091 1.54189 9.55707 1.17965C8.00501 0.81741 6.37837 1.00642 4.9457 1.71547C3.51303 2.42453 2.35994 3.61125 1.67685 5.07971C0.993761 6.54816 0.82146 8.21056 1.18842 9.79249C1.55538 11.3744 2.43967 12.7813 3.69527 13.7808C4.95087 14.7804 6.50274 15.3128 8.09467 15.2903C9.6866 15.2678 11.2234 14.6917 12.4514 13.657L17.4259 18.8962C17.488 18.9609 17.5726 18.9982 17.6613 18.9999C17.7501 19.0017 17.8361 18.9679 17.9006 18.9056C17.9633 18.8429 17.999 18.7574 18 18.6678C18.0009 18.5782 17.9671 18.4919 17.9058 18.4277ZM7.98784 14.615C6.74474 14.6056 5.53222 14.2206 4.50306 13.5086C3.47391 12.7966 2.67422 11.7894 2.20484 10.614C1.73547 9.43853 1.61738 8.14752 1.86551 6.90368C2.11364 5.65984 2.71689 4.51883 3.59914 3.62455C4.4814 2.73026 5.60316 2.12272 6.82308 1.8785C8.04299 1.63427 9.30642 1.76432 10.4541 2.25223C11.6017 2.74014 12.5822 3.56408 13.2719 4.62017C13.9616 5.67625 14.3297 6.91721 14.3298 8.18659C14.321 9.89697 13.6486 11.5341 12.4598 12.739C11.271 13.944 9.66287 14.6186 7.98784 14.615Z" fill="#272727" stroke="#272727" stroke-width="0.4"/>
</svg>
