<svg xmlns="http://www.w3.org/2000/svg" width="20.321" height="24.688" viewBox="0 0 20.321 24.688">
  <g id="noun_Shopping_Bag_1953637" data-name="noun_Shopping Bag_1953637" transform="translate(-64.179 -115)">
    <path id="Trazado_1" data-name="Trazado 1" d="M88.072,7.937h-3.2V4.014a4.589,4.589,0,0,0-9.106,0V7.935H72.6a.481.481,0,0,0-.473.373c-.017.145-1.927,15.771-1.949,15.964a.473.473,0,0,0,.5.416H90a.473.473,0,0,0,.5-.44C90.48,24.079,88.571,8.453,88.551,8.3A.48.48,0,0,0,88.072,7.937ZM76.76,4.014a3.585,3.585,0,0,1,7.113,0V7.935H76.76ZM71.237,23.808l.038-.3c.275-2.269,1.046-8.568,1.606-13.156l.187-1.532h2.7v1.706a.5.5,0,0,0,1,0V8.815h7.113v1.706a.5.5,0,0,0,1,0V8.815h2.743l1.832,14.993H71.237Z" transform="translate(-6 115)"/>
  </g>
</svg>
